# xmcd
#
# Track frame offsets: 
#        150
#        21181
#        42059
#        63582
#        80660
#        102957
#        116352
#
# Disc length: 1821 seconds
#
# Revision: 0
# Processed by: cddbd v1.5.2PL0 Copyright (c) Steve Scherf et al.
# Submitted via: ExactAudioCopy v0.99pb4
#
DISCID=52071b07
DTITLE=The Partners - The Last Disco In Paris
DYEAR=1977
DGENRE=Soul
TTITLE0=Partners
TTITLE1=Friday
TTITLE2=Dance (Whoever You Are)
TTITLE3=The Last Disco In Paris
TTITLE4=Green Eyes
TTITLE5=Love Meant To Be
TTITLE6=So Long
EXTD=
EXTT0=
EXTT1=
EXTT2=
EXTT3=
EXTT4=
EXTT5=
EXTT6=
PLAYORDER=
